<?xml version="1.0" standalone="no"?><!DOCTYPE svg PUBLIC "-//W3C//DTD SVG 1.1//EN" "http://www.w3.org/Graphics/SVG/1.1/DTD/svg11.dtd"><svg t="1554895279800" class="icon" style="" viewBox="0 0 1024 1024" version="1.1" xmlns="http://www.w3.org/2000/svg" p-id="830" xmlns:xlink="http://www.w3.org/1999/xlink" width="200" height="200"><defs><style type="text/css"></style></defs><path d="M626.176 903.424h-1.536c-15.616 0-28.16-12.8-27.904-28.416 0-15.616 12.8-27.904 28.16-27.904h1.28c56.064 0 111.872-24.832 157.44-70.144 65.28-64.768 101.12-162.048 101.12-274.176 0-216.064-167.168-391.936-372.736-391.936S139.264 286.72 139.264 502.784c0 15.616-12.544 28.16-28.16 28.16s-28.16-12.544-28.16-28.16c0-247.04 192.512-448.256 429.056-448.256s429.056 200.96 429.056 448.256c0 126.976-41.728 238.592-117.76 314.112-56.32 55.808-126.208 86.528-197.12 86.528z" p-id="831"></path><path d="M183.04 633.6H141.824c-32.512 0-58.88-26.368-58.88-58.88v-101.376c0-32.512 26.368-58.88 58.88-58.88h41.216c32.512 0 58.88 26.368 58.88 58.88v101.376c0 32.512-26.368 58.88-58.88 58.88z m-41.216-162.816c-1.28 0-2.56 1.28-2.56 2.56v101.376c0 1.28 1.28 2.56 2.56 2.56h41.216c1.28 0 2.56-1.28 2.56-2.56v-101.376c0-1.28-1.28-2.56-2.56-2.56H141.824zM874.496 633.6h-41.216c-32.512 0-58.88-26.368-58.88-58.88v-101.376c0-32.512 26.368-58.88 58.88-58.88h41.216c32.512 0 58.88 26.368 58.88 58.88v101.376c0 32.512-26.368 58.88-58.88 58.88z m-41.216-162.816c-1.28 0-2.56 1.28-2.56 2.56v101.376c0 1.28 1.28 2.56 2.56 2.56h41.216c1.28 0 2.56-1.28 2.56-2.56v-101.376c0-1.28-1.28-2.56-2.56-2.56h-41.216zM544.512 969.472c-55.552 0-100.864-45.312-100.864-100.864s45.312-100.864 100.864-100.864 100.864 45.312 100.864 100.864-45.312 100.864-100.864 100.864z m0-145.408c-24.576 0-44.544 19.968-44.544 44.544s19.968 44.544 44.544 44.544 44.544-19.968 44.544-44.544-19.968-44.544-44.544-44.544z" p-id="832"></path></svg>