<?xml version="1.0" standalone="no"?><!DOCTYPE svg PUBLIC "-//W3C//DTD SVG 1.1//EN" "http://www.w3.org/Graphics/SVG/1.1/DTD/svg11.dtd"><svg t="1554894652973" class="icon" style="" viewBox="0 0 1024 1024" version="1.1" xmlns="http://www.w3.org/2000/svg" p-id="1361" xmlns:xlink="http://www.w3.org/1999/xlink" width="200" height="200"><defs><style type="text/css"></style></defs><path d="M1024 302.08q0 4.096-0.512 8.192t-2.56 8.192q2.048 7.168 2.56 13.824t0.512 13.824q0 26.624-7.68 50.688t-22.016 43.52l0 524.288q0 24.576-17.408 41.984t-43.008 17.408l-843.776 0q-24.576 0-41.984-17.408t-17.408-41.984l0-524.288q-30.72-37.888-30.72-94.208 0-7.168 0.512-13.824t1.536-13.824q-2.048-10.24-2.048-16.384l0-211.968q0-25.6 17.408-42.496t43.008-16.896l904.192 0q24.576 0 41.984 16.896t17.408 42.496l0 211.968zM903.168 504.832q-11.264 4.096-24.064 5.632t-25.088 1.536q-33.792 0-63.488-11.776t-52.736-31.744-36.864-47.104-16.896-58.88l-2.048 0q-3.072 31.744-17.408 58.88t-36.864 47.104-52.224 31.744-63.488 11.776-63.488-11.776-52.224-31.744-36.864-47.104-17.408-58.88l-1.024 0q-3.072 31.744-17.408 58.88t-37.376 47.104-52.736 31.744-62.464 11.776q-28.672 0-51.2-7.168l0 368.64q0 25.6 17.92 43.008t42.496 17.408l662.528 0q25.6 0 43.008-17.408t17.408-43.008l0-368.64z" p-id="1362"></path></svg>