<?xml version="1.0" standalone="no"?><!DOCTYPE svg PUBLIC "-//W3C//DTD SVG 1.1//EN" "http://www.w3.org/Graphics/SVG/1.1/DTD/svg11.dtd"><svg t="1554895124419" class="icon" style="" viewBox="0 0 1024 1024" version="1.1" xmlns="http://www.w3.org/2000/svg" p-id="1920" xmlns:xlink="http://www.w3.org/1999/xlink" width="200" height="200"><defs><style type="text/css"></style></defs><path d="M962.289 839.413h-73.422c-8.889-71.183-69.5-126.297-143.088-126.297s-134.199 55.114-143.089 126.297h-55.376c-29.892 0-54.129-24.243-54.129-54.126v-487.149c0-29.9 24.236-54.127 54.129-54.127h414.976c29.891 0 54.128 24.227 54.128 54.127v487.149c0 29.883-24.236 54.126-54.128 54.126zM402.974 839.413h-37.327c-8.898-71.183-69.509-126.297-143.098-126.297-73.591 0-134.194 55.114-143.092 126.297h-37.332c-19.926 0-36.084-16.157-36.084-36.086 0 0 0-87.973 0-198.467 0-72.099 123.421-252.594 180.423-252.594 110.501 0 216.51 0 216.51 0 19.929 0 36.084 16.157 36.084 36.084v414.976c0.001 19.931-16.157 36.087-36.083 36.087zM330.804 442.479c0 0-56.876-2.625-125.135 0-29.125 1.11-109.418 107.374-109.418 162.382 0 14.079 0 17.392 0 18.043h234.553v-180.425zM222.548 767.244c49.82 0 90.212 40.384 90.212 90.212 0 49.81-40.393 90.211-90.212 90.211-49.824 0-90.212-40.403-90.212-90.211 0-49.828 40.389-90.212 90.212-90.212zM750.29 767.244c52.311 0 94.723 42.411 94.723 94.724s-42.412 94.721-94.723 94.721c-52.313 0-94.723-42.411-94.723-94.721 0-52.314 42.412-94.724 94.723-94.724z" p-id="1921"></path></svg>