<?xml version="1.0" standalone="no"?><!DOCTYPE svg PUBLIC "-//W3C//DTD SVG 1.1//EN" "http://www.w3.org/Graphics/SVG/1.1/DTD/svg11.dtd"><svg t="1554822452957" class="icon" style="" viewBox="0 0 1024 1024" version="1.1" xmlns="http://www.w3.org/2000/svg" p-id="826" xmlns:xlink="http://www.w3.org/1999/xlink" width="200" height="200"><defs><style type="text/css"></style></defs><path d="M811.264 950.016H212.736c-33.024 0-59.904-26.88-59.904-59.904v-716.8c0-33.024 26.88-59.904 59.904-59.904h144.896c15.616 0 28.16 12.544 28.16 28.16v44.8c0 1.792 1.536 3.584 3.584 3.584h245.248c1.792 0 3.584-1.536 3.584-3.584V141.568c0-15.616 12.544-28.16 28.16-28.16h144.896c33.024 0 59.904 26.88 59.904 59.904v717.056c-0.256 33.024-26.88 59.648-59.904 59.648zM212.736 169.728c-1.792 0-3.584 1.536-3.584 3.584v717.056c0 1.792 1.536 3.584 3.584 3.584h598.528c1.792 0 3.584-1.536 3.584-3.584V173.312c0-1.792-1.536-3.584-3.584-3.584h-116.736v16.64c0 33.024-26.88 59.904-59.904 59.904h-245.248c-33.024 0-59.904-26.88-59.904-59.904v-16.64H212.736z" p-id="827"></path><path d="M709.632 401.664H314.368c-15.616 0-28.16-12.544-28.16-28.16s12.544-28.16 28.16-28.16h395.52c15.616 0 28.16 12.544 28.16 28.16s-12.8 28.16-28.416 28.16zM709.632 559.872H314.368c-15.616 0-28.16-12.544-28.16-28.16s12.544-28.16 28.16-28.16h395.52c15.616 0 28.16 12.544 28.16 28.16s-12.8 28.16-28.416 28.16zM709.632 718.08H314.368c-15.616 0-28.16-12.544-28.16-28.16s12.544-28.16 28.16-28.16h395.52c15.616 0 28.16 12.544 28.16 28.16s-12.8 28.16-28.416 28.16zM564.736 130.304h-105.472c-15.616 0-28.16-12.544-28.16-28.16s12.544-28.16 28.16-28.16h105.472c15.616 0 28.16 12.544 28.16 28.16s-12.544 28.16-28.16 28.16z" p-id="828"></path></svg>