<?xml version="1.0" standalone="no"?><!DOCTYPE svg PUBLIC "-//W3C//DTD SVG 1.1//EN" "http://www.w3.org/Graphics/SVG/1.1/DTD/svg11.dtd"><svg t="1554902714378" class="icon" style="" viewBox="0 0 1024 1024" version="1.1" xmlns="http://www.w3.org/2000/svg" p-id="9354" xmlns:xlink="http://www.w3.org/1999/xlink" width="200" height="200"><defs><style type="text/css"></style></defs><path d="M512 0C509.22737 0 233.998135 0.744223 0.474686 62.806013l0 448.145592 0 0.555059c0.426285 5.818792 7.917359 93.944367 71.873454 198.890444 38.799054 63.68345 90.436396 120.723068 153.473313 169.588668 78.332562 60.735866 174.603736 108.920298 286.177659 143.20961 111.247992-34.224481 207.295367-82.192219 285.488498-142.665208 62.998729-48.715512 114.646728-105.606819 153.524823-169.071798 64.377051-105.154779 72.076827-194.23772 72.511993-199.957933l0-0.555059L1023.524426 62.806013C790.008081 0.744223 514.783287 0 512 0zM914.654749 689.189422c-36.173848 59.059144-84.369825 112.091682-143.250462 157.618048-71.129231 55.015652-158.355167 99.290694-259.414056 131.706128-101.271144-32.459838-188.700453-76.903618-260.048155-132.21767C192.992168 800.596383 144.816616 747.411093 108.751116 688.213406 53.085379 596.86849 44.159146 521.011047 43.107642 509.730476L43.107642 96.028724C262.681798 43.616964 508.546202 42.640061 511.999112 42.634732c3.447581 0.005329 249.31465 0.976903 468.89147 53.393992l0.000888 413.627151C979.769807 521.239287 970.483895 597.998146 914.654749 689.189422z" p-id="9355"></path><path d="M632.660013 421.543622c25.603752-28.525582 69.432971-81.35297 107.835935-130.240772l-30.723615-24.444789L605.540285 395.057992 632.660013 421.543622z" p-id="9356"></path><path d="M561.375366 253.147664c105.592609 0 189.073452-10.391589 189.073452-10.391589l-5.758402-43.330998c0 0-74.761535 10.149139-184.602787 10.149139-67.133695 0-236.07672 0-236.07672 0l0.221135 44.073445C324.23027 253.646773 502.337536 253.147664 561.375366 253.147664z" p-id="9357"></path><path d="M419.006781 409.621847l31.988261-25.708547c-8.964422-12.220174-68.183423-87.524335-75.865436-98.417697l-30.067313 21.632195C364.266439 330.245775 393.383491 371.614973 419.006781 409.621847z" p-id="9358"></path><path d="M594.73218 488.073413l177.316863 0 0-42.613418L559.412678 445.459995l0-42.828337-43.214658 0 0 42.828337L303.562544 445.459995l0 42.613418 173.92612 0c-39.687148 58.401066-90.487905 106.59438-173.696104 143.266448 10.241501 10.867607 19.201482 21.710348 26.88172 32.593053 80.652263-39.382532 140.696304-94.384862 185.524629-165.013208l0 201.682612 43.214658 0L559.413567 498.920595c43.504176 72.00578 101.5429 123.596052 186.033506 154.826769 15.361363-20.372878 24.304471-31.896787 26.885272-34.626788C690.401226 594.668681 639.53919 550.542839 594.73218 488.073413z" p-id="9359"></path><path d="M484.469084 279.078235l46.486396 112.761305 37.06283-12.220174c-7.680238-20.371102-48.404679-111.402521-48.404679-112.761305L484.469084 279.078235z" p-id="9360"></path></svg>